<?xml version="1.0" encoding="UTF-8" standalone="no"?>
<!-- Created with Inkscape (http://www.inkscape.org/) -->

<svg
   xmlns:dc="http://purl.org/dc/elements/1.1/"
   xmlns:cc="http://creativecommons.org/ns#"
   xmlns:rdf="http://www.w3.org/1999/02/22-rdf-syntax-ns#"
   xmlns:svg="http://www.w3.org/2000/svg"
   xmlns="http://www.w3.org/2000/svg"
   xmlns:sodipodi="http://sodipodi.sourceforge.net/DTD/sodipodi-0.dtd"
   xmlns:inkscape="http://www.inkscape.org/namespaces/inkscape"
   width="100pt"
   height="62pt"
   viewBox="0 0 35.277778 21.872212"
   version="1.1"
   id="svg8"
   inkscape:version="0.92.5 (2060ec1f9f, 2020-04-08)"
   sodipodi:docname="initiales.svg">
  <defs
     id="defs2" />
  <sodipodi:namedview
     id="base"
     pagecolor="#ffffff"
     bordercolor="#666666"
     borderopacity="1.0"
     inkscape:pageopacity="0.0"
     inkscape:pageshadow="2"
     inkscape:zoom="5.6"
     inkscape:cx="111.98201"
     inkscape:cy="71.795778"
     inkscape:document-units="mm"
     inkscape:current-layer="g852"
     showgrid="false"
     inkscape:snap-text-baseline="true"
     inkscape:window-width="1992"
     inkscape:window-height="1088"
     inkscape:window-x="1976"
     inkscape:window-y="27"
     inkscape:window-maximized="1"
     scale-x="1"
     units="pt"
     inkscape:snap-page="false" />
  <metadata
     id="metadata5">
    <rdf:RDF>
      <cc:Work
         rdf:about="">
        <dc:format>image/svg+xml</dc:format>
        <dc:type
           rdf:resource="http://purl.org/dc/dcmitype/StillImage" />
        <dc:title></dc:title>
      </cc:Work>
    </rdf:RDF>
  </metadata>
  <g
     inkscape:label="Calque 1"
     inkscape:groupmode="layer"
     id="layer1"
     transform="translate(0,-275.12786)">
    <text
       xml:space="preserve"
       style="font-style:normal;font-weight:normal;font-size:10.58333302px;line-height:1.25;font-family:sans-serif;letter-spacing:0px;word-spacing:0px;fill:#000000;fill-opacity:1;stroke:none;stroke-width:0.26458332"
       x="71.059525"
       y="83.821426"
       id="text817"><tspan
         sodipodi:role="line"
         id="tspan815"
         x="71.059525"
         y="93.185196"
         style="stroke-width:0.26458332" /></text>
    <g
       aria-label="BP."
       style="font-style:normal;font-variant:normal;font-weight:normal;font-stretch:normal;font-size:10.58333302px;line-height:1.25;font-family:Roboto;-inkscape-font-specification:'Roboto, Normal';font-variant-ligatures:normal;font-variant-caps:normal;font-variant-numeric:normal;font-feature-settings:normal;text-align:start;letter-spacing:0px;word-spacing:0px;writing-mode:lr-tb;text-anchor:start;fill:#000000;fill-opacity:1;stroke:none;stroke-width:0.26458332"
       id="text821"
       transform="translate(-0.42522322,-0.11811756)">
      <g
         id="g852">
        <g
           id="g888"
           transform="matrix(2.7135858,0,0,2.7135858,-200.40504,81.397832)">
          <path
             d="m 79.321843,77.020798 q 0,1.054199 -0.682129,1.612304 -0.676961,0.558106 -1.803507,0.558106 H 74.200709 V 71.66712 h 2.464966 q 1.157552,0 1.803507,0.48059 0.651123,0.475424 0.651123,1.524455 0,0.521932 -0.299723,0.930176 -0.294556,0.403076 -0.81132,0.625285 0.63562,0.1757 0.971517,0.666626 0.341064,0.490926 0.341064,1.126546 z m -4.123779,-4.537191 v 2.387451 h 1.498617 q 0.640787,0 1.033528,-0.320394 0.392741,-0.320393 0.392741,-0.888834 0,-1.152385 -1.395264,-1.178223 z m 3.131592,4.547526 q 0,-0.630452 -0.346232,-0.992187 -0.341065,-0.366903 -1.100708,-0.366903 h -1.684652 v 2.707845 h 1.638143 q 0.707967,0 1.100708,-0.361735 0.392741,-0.366903 0.392741,-0.98702 z"
             style="font-style:normal;font-variant:normal;font-weight:normal;font-stretch:normal;font-size:10.58333302px;font-family:Roboto;-inkscape-font-specification:'Roboto, Normal';font-variant-ligatures:normal;font-variant-caps:normal;font-variant-numeric:normal;font-feature-settings:normal;text-align:start;writing-mode:lr-tb;text-anchor:start;stroke-width:0.26458332"
             id="path842"
             inkscape:connector-curvature="0" />
          <path
             d="m 81.791977,76.240484 v 2.950724 H 80.794622 V 71.66712 h 2.775024 q 1.281575,0 1.958537,0.645955 0.682129,0.645955 0.682129,1.648478 0,1.090373 -0.682129,1.684652 -0.676962,0.594279 -1.958537,0.594279 z m 0,-3.756877 v 2.945557 h 1.777669 q 0.878499,0 1.260905,-0.408244 0.382405,-0.408244 0.382405,-1.049032 0,-0.578776 -0.382405,-1.033528 -0.382406,-0.454753 -1.260905,-0.454753 z"
             style="font-style:normal;font-variant:normal;font-weight:normal;font-stretch:normal;font-size:10.58333302px;font-family:Roboto;-inkscape-font-specification:'Roboto, Normal';font-variant-ligatures:normal;font-variant-caps:normal;font-variant-numeric:normal;font-feature-settings:normal;text-align:start;writing-mode:lr-tb;text-anchor:start;stroke-width:0.26458332"
             id="path844"
             inkscape:connector-curvature="0" />
          <path
             d="m 85.667709,78.684779 q 0,-0.242879 0.149862,-0.408244 0.155029,-0.170532 0.444417,-0.170532 0.289388,0 0.43925,0.170532 0.155029,0.165365 0.155029,0.408244 0,0.237711 -0.155029,0.403076 -0.149862,0.165365 -0.43925,0.165365 -0.289388,0 -0.444417,-0.165365 -0.149862,-0.165365 -0.149862,-0.403076 z"
             style="font-style:normal;font-variant:normal;font-weight:normal;font-stretch:normal;font-size:10.58333302px;font-family:Roboto;-inkscape-font-specification:'Roboto, Normal';font-variant-ligatures:normal;font-variant-caps:normal;font-variant-numeric:normal;font-feature-settings:normal;text-align:start;writing-mode:lr-tb;text-anchor:start;stroke-width:0.26458332"
             id="path846"
             inkscape:connector-curvature="0" />
        </g>
      </g>
    </g>
  </g>
</svg>
