<?xml version="1.0" encoding="utf-8"?>
<!DOCTYPE svg PUBLIC "-//W3C//DTD SVG 1.1//EN" "http://www.w3.org/Graphics/SVG/1.1/DTD/svg11.dtd">
<svg version="1.1" id="Layer_1" xmlns="http://www.w3.org/2000/svg" xmlns:xlink="http://www.w3.org/1999/xlink" x="0px" y="0px"
width="1200px" height="1200px" viewBox="0 0 1200 1200" enable-background="new 0 0 1200 1200" xml:space="preserve">
<rect x="0" y="0" width="1200" height="1200" style="fill:#ffffff;fill-opacity:0" /><g transform="translate(96,96)"><g transform="translate(432,0) scale(0.48,0.48)"><g transform="" style="fill: rgb(65, 83, 178);">
<rect width="100" height="100"/>
</g></g><g transform="translate(480,0) scale(0.48,0.48)"><g transform="" style="fill: rgb(65, 83, 178);">
<rect width="100" height="100"/>
</g></g><g transform="translate(528,0) scale(0.48,0.48)"><g transform="" style="fill: rgb(65, 83, 178);">
<rect width="100" height="100"/>
</g></g><g transform="translate(576,0) scale(0.48,0.48)"><g transform="" style="fill: rgb(65, 83, 178);">
<rect width="100" height="100"/>
</g></g><g transform="translate(576,48) scale(0.48,0.48)"><g transform="" style="fill: rgb(65, 83, 178);">
<rect width="100" height="100"/>
</g></g><g transform="translate(384,96) scale(0.48,0.48)"><g transform="" style="fill: rgb(65, 83, 178);">
<rect width="100" height="100"/>
</g></g><g transform="translate(480,96) scale(0.48,0.48)"><g transform="" style="fill: rgb(65, 83, 178);">
<rect width="100" height="100"/>
</g></g><g transform="translate(576,96) scale(0.48,0.48)"><g transform="" style="fill: rgb(65, 83, 178);">
<rect width="100" height="100"/>
</g></g><g transform="translate(384,144) scale(0.48,0.48)"><g transform="" style="fill: rgb(65, 83, 178);">
<rect width="100" height="100"/>
</g></g><g transform="translate(480,144) scale(0.48,0.48)"><g transform="" style="fill: rgb(65, 83, 178);">
<rect width="100" height="100"/>
</g></g><g transform="translate(384,192) scale(0.48,0.48)"><g transform="" style="fill: rgb(65, 83, 178);">
<rect width="100" height="100"/>
</g></g><g transform="translate(432,192) scale(0.48,0.48)"><g transform="" style="fill: rgb(65, 83, 178);">
<rect width="100" height="100"/>
</g></g><g transform="translate(576,192) scale(0.48,0.48)"><g transform="" style="fill: rgb(65, 83, 178);">
<rect width="100" height="100"/>
</g></g><g transform="translate(384,240) scale(0.48,0.48)"><g transform="" style="fill: rgb(65, 83, 178);">
<rect width="100" height="100"/>
</g></g><g transform="translate(432,240) scale(0.48,0.48)"><g transform="" style="fill: rgb(65, 83, 178);">
<rect width="100" height="100"/>
</g></g><g transform="translate(528,240) scale(0.48,0.48)"><g transform="" style="fill: rgb(65, 83, 178);">
<rect width="100" height="100"/>
</g></g><g transform="translate(384,288) scale(0.48,0.48)"><g transform="" style="fill: rgb(65, 83, 178);">
<rect width="100" height="100"/>
</g></g><g transform="translate(480,288) scale(0.48,0.48)"><g transform="" style="fill: rgb(65, 83, 178);">
<rect width="100" height="100"/>
</g></g><g transform="translate(576,288) scale(0.48,0.48)"><g transform="" style="fill: rgb(65, 83, 178);">
<rect width="100" height="100"/>
</g></g><g transform="translate(384,336) scale(0.48,0.48)"><g transform="" style="fill: rgb(65, 83, 178);">
<rect width="100" height="100"/>
</g></g><g transform="translate(480,336) scale(0.48,0.48)"><g transform="" style="fill: rgb(65, 83, 178);">
<rect width="100" height="100"/>
</g></g><g transform="translate(0,384) scale(0.48,0.48)"><g transform="" style="fill: rgb(65, 83, 178);">
<rect width="100" height="100"/>
</g></g><g transform="translate(96,384) scale(0.48,0.48)"><g transform="" style="fill: rgb(65, 83, 178);">
<rect width="100" height="100"/>
</g></g><g transform="translate(144,384) scale(0.48,0.48)"><g transform="" style="fill: rgb(65, 83, 178);">
<rect width="100" height="100"/>
</g></g><g transform="translate(192,384) scale(0.48,0.48)"><g transform="" style="fill: rgb(65, 83, 178);">
<rect width="100" height="100"/>
</g></g><g transform="translate(240,384) scale(0.48,0.48)"><g transform="" style="fill: rgb(65, 83, 178);">
<rect width="100" height="100"/>
</g></g><g transform="translate(288,384) scale(0.48,0.48)"><g transform="" style="fill: rgb(65, 83, 178);">
<rect width="100" height="100"/>
</g></g><g transform="translate(432,384) scale(0.48,0.48)"><g transform="" style="fill: rgb(65, 83, 178);">
<rect width="100" height="100"/>
</g></g><g transform="translate(528,384) scale(0.48,0.48)"><g transform="" style="fill: rgb(65, 83, 178);">
<rect width="100" height="100"/>
</g></g><g transform="translate(672,384) scale(0.48,0.48)"><g transform="" style="fill: rgb(65, 83, 178);">
<rect width="100" height="100"/>
</g></g><g transform="translate(720,384) scale(0.48,0.48)"><g transform="" style="fill: rgb(65, 83, 178);">
<rect width="100" height="100"/>
</g></g><g transform="translate(768,384) scale(0.48,0.48)"><g transform="" style="fill: rgb(65, 83, 178);">
<rect width="100" height="100"/>
</g></g><g transform="translate(816,384) scale(0.48,0.48)"><g transform="" style="fill: rgb(65, 83, 178);">
<rect width="100" height="100"/>
</g></g><g transform="translate(864,384) scale(0.48,0.48)"><g transform="" style="fill: rgb(65, 83, 178);">
<rect width="100" height="100"/>
</g></g><g transform="translate(144,432) scale(0.48,0.48)"><g transform="" style="fill: rgb(65, 83, 178);">
<rect width="100" height="100"/>
</g></g><g transform="translate(384,432) scale(0.48,0.48)"><g transform="" style="fill: rgb(65, 83, 178);">
<rect width="100" height="100"/>
</g></g><g transform="translate(528,432) scale(0.48,0.48)"><g transform="" style="fill: rgb(65, 83, 178);">
<rect width="100" height="100"/>
</g></g><g transform="translate(576,432) scale(0.48,0.48)"><g transform="" style="fill: rgb(65, 83, 178);">
<rect width="100" height="100"/>
</g></g><g transform="translate(624,432) scale(0.48,0.48)"><g transform="" style="fill: rgb(65, 83, 178);">
<rect width="100" height="100"/>
</g></g><g transform="translate(672,432) scale(0.48,0.48)"><g transform="" style="fill: rgb(65, 83, 178);">
<rect width="100" height="100"/>
</g></g><g transform="translate(816,432) scale(0.48,0.48)"><g transform="" style="fill: rgb(65, 83, 178);">
<rect width="100" height="100"/>
</g></g><g transform="translate(864,432) scale(0.48,0.48)"><g transform="" style="fill: rgb(65, 83, 178);">
<rect width="100" height="100"/>
</g></g><g transform="translate(960,432) scale(0.48,0.48)"><g transform="" style="fill: rgb(65, 83, 178);">
<rect width="100" height="100"/>
</g></g><g transform="translate(96,480) scale(0.48,0.48)"><g transform="" style="fill: rgb(65, 83, 178);">
<rect width="100" height="100"/>
</g></g><g transform="translate(144,480) scale(0.48,0.48)"><g transform="" style="fill: rgb(65, 83, 178);">
<rect width="100" height="100"/>
</g></g><g transform="translate(192,480) scale(0.48,0.48)"><g transform="" style="fill: rgb(65, 83, 178);">
<rect width="100" height="100"/>
</g></g><g transform="translate(240,480) scale(0.48,0.48)"><g transform="" style="fill: rgb(65, 83, 178);">
<rect width="100" height="100"/>
</g></g><g transform="translate(288,480) scale(0.48,0.48)"><g transform="" style="fill: rgb(65, 83, 178);">
<rect width="100" height="100"/>
</g></g><g transform="translate(432,480) scale(0.48,0.48)"><g transform="" style="fill: rgb(65, 83, 178);">
<rect width="100" height="100"/>
</g></g><g transform="translate(480,480) scale(0.48,0.48)"><g transform="" style="fill: rgb(65, 83, 178);">
<rect width="100" height="100"/>
</g></g><g transform="translate(576,480) scale(0.48,0.48)"><g transform="" style="fill: rgb(65, 83, 178);">
<rect width="100" height="100"/>
</g></g><g transform="translate(672,480) scale(0.48,0.48)"><g transform="" style="fill: rgb(65, 83, 178);">
<rect width="100" height="100"/>
</g></g><g transform="translate(720,480) scale(0.48,0.48)"><g transform="" style="fill: rgb(65, 83, 178);">
<rect width="100" height="100"/>
</g></g><g transform="translate(816,480) scale(0.48,0.48)"><g transform="" style="fill: rgb(65, 83, 178);">
<rect width="100" height="100"/>
</g></g><g transform="translate(864,480) scale(0.48,0.48)"><g transform="" style="fill: rgb(65, 83, 178);">
<rect width="100" height="100"/>
</g></g><g transform="translate(912,480) scale(0.48,0.48)"><g transform="" style="fill: rgb(65, 83, 178);">
<rect width="100" height="100"/>
</g></g><g transform="translate(96,528) scale(0.48,0.48)"><g transform="" style="fill: rgb(65, 83, 178);">
<rect width="100" height="100"/>
</g></g><g transform="translate(240,528) scale(0.48,0.48)"><g transform="" style="fill: rgb(65, 83, 178);">
<rect width="100" height="100"/>
</g></g><g transform="translate(336,528) scale(0.48,0.48)"><g transform="" style="fill: rgb(65, 83, 178);">
<rect width="100" height="100"/>
</g></g><g transform="translate(384,528) scale(0.48,0.48)"><g transform="" style="fill: rgb(65, 83, 178);">
<rect width="100" height="100"/>
</g></g><g transform="translate(480,528) scale(0.48,0.48)"><g transform="" style="fill: rgb(65, 83, 178);">
<rect width="100" height="100"/>
</g></g><g transform="translate(528,528) scale(0.48,0.48)"><g transform="" style="fill: rgb(65, 83, 178);">
<rect width="100" height="100"/>
</g></g><g transform="translate(576,528) scale(0.48,0.48)"><g transform="" style="fill: rgb(65, 83, 178);">
<rect width="100" height="100"/>
</g></g><g transform="translate(624,528) scale(0.48,0.48)"><g transform="" style="fill: rgb(65, 83, 178);">
<rect width="100" height="100"/>
</g></g><g transform="translate(672,528) scale(0.48,0.48)"><g transform="" style="fill: rgb(65, 83, 178);">
<rect width="100" height="100"/>
</g></g><g transform="translate(816,528) scale(0.48,0.48)"><g transform="" style="fill: rgb(65, 83, 178);">
<rect width="100" height="100"/>
</g></g><g transform="translate(864,528) scale(0.48,0.48)"><g transform="" style="fill: rgb(65, 83, 178);">
<rect width="100" height="100"/>
</g></g><g transform="translate(48,576) scale(0.48,0.48)"><g transform="" style="fill: rgb(65, 83, 178);">
<rect width="100" height="100"/>
</g></g><g transform="translate(96,576) scale(0.48,0.48)"><g transform="" style="fill: rgb(65, 83, 178);">
<rect width="100" height="100"/>
</g></g><g transform="translate(144,576) scale(0.48,0.48)"><g transform="" style="fill: rgb(65, 83, 178);">
<rect width="100" height="100"/>
</g></g><g transform="translate(288,576) scale(0.48,0.48)"><g transform="" style="fill: rgb(65, 83, 178);">
<rect width="100" height="100"/>
</g></g><g transform="translate(336,576) scale(0.48,0.48)"><g transform="" style="fill: rgb(65, 83, 178);">
<rect width="100" height="100"/>
</g></g><g transform="translate(384,576) scale(0.48,0.48)"><g transform="" style="fill: rgb(65, 83, 178);">
<rect width="100" height="100"/>
</g></g><g transform="translate(432,576) scale(0.48,0.48)"><g transform="" style="fill: rgb(65, 83, 178);">
<rect width="100" height="100"/>
</g></g><g transform="translate(480,576) scale(0.48,0.48)"><g transform="" style="fill: rgb(65, 83, 178);">
<rect width="100" height="100"/>
</g></g><g transform="translate(576,576) scale(0.48,0.48)"><g transform="" style="fill: rgb(65, 83, 178);">
<rect width="100" height="100"/>
</g></g><g transform="translate(720,576) scale(0.48,0.48)"><g transform="" style="fill: rgb(65, 83, 178);">
<rect width="100" height="100"/>
</g></g><g transform="translate(960,576) scale(0.48,0.48)"><g transform="" style="fill: rgb(65, 83, 178);">
<rect width="100" height="100"/>
</g></g><g transform="translate(384,624) scale(0.48,0.48)"><g transform="" style="fill: rgb(65, 83, 178);">
<rect width="100" height="100"/>
</g></g><g transform="translate(576,624) scale(0.48,0.48)"><g transform="" style="fill: rgb(65, 83, 178);">
<rect width="100" height="100"/>
</g></g><g transform="translate(720,624) scale(0.48,0.48)"><g transform="" style="fill: rgb(65, 83, 178);">
<rect width="100" height="100"/>
</g></g><g transform="translate(816,624) scale(0.48,0.48)"><g transform="" style="fill: rgb(65, 83, 178);">
<rect width="100" height="100"/>
</g></g><g transform="translate(432,672) scale(0.48,0.48)"><g transform="" style="fill: rgb(65, 83, 178);">
<rect width="100" height="100"/>
</g></g><g transform="translate(528,672) scale(0.48,0.48)"><g transform="" style="fill: rgb(65, 83, 178);">
<rect width="100" height="100"/>
</g></g><g transform="translate(624,672) scale(0.48,0.48)"><g transform="" style="fill: rgb(65, 83, 178);">
<rect width="100" height="100"/>
</g></g><g transform="translate(768,672) scale(0.48,0.48)"><g transform="" style="fill: rgb(65, 83, 178);">
<rect width="100" height="100"/>
</g></g><g transform="translate(864,672) scale(0.48,0.48)"><g transform="" style="fill: rgb(65, 83, 178);">
<rect width="100" height="100"/>
</g></g><g transform="translate(912,672) scale(0.48,0.48)"><g transform="" style="fill: rgb(65, 83, 178);">
<rect width="100" height="100"/>
</g></g><g transform="translate(384,720) scale(0.48,0.48)"><g transform="" style="fill: rgb(65, 83, 178);">
<rect width="100" height="100"/>
</g></g><g transform="translate(480,720) scale(0.48,0.48)"><g transform="" style="fill: rgb(65, 83, 178);">
<rect width="100" height="100"/>
</g></g><g transform="translate(720,720) scale(0.48,0.48)"><g transform="" style="fill: rgb(65, 83, 178);">
<rect width="100" height="100"/>
</g></g><g transform="translate(768,720) scale(0.48,0.48)"><g transform="" style="fill: rgb(65, 83, 178);">
<rect width="100" height="100"/>
</g></g><g transform="translate(816,720) scale(0.48,0.48)"><g transform="" style="fill: rgb(65, 83, 178);">
<rect width="100" height="100"/>
</g></g><g transform="translate(864,720) scale(0.48,0.48)"><g transform="" style="fill: rgb(65, 83, 178);">
<rect width="100" height="100"/>
</g></g><g transform="translate(912,720) scale(0.48,0.48)"><g transform="" style="fill: rgb(65, 83, 178);">
<rect width="100" height="100"/>
</g></g><g transform="translate(384,768) scale(0.48,0.48)"><g transform="" style="fill: rgb(65, 83, 178);">
<rect width="100" height="100"/>
</g></g><g transform="translate(528,768) scale(0.48,0.48)"><g transform="" style="fill: rgb(65, 83, 178);">
<rect width="100" height="100"/>
</g></g><g transform="translate(624,768) scale(0.48,0.48)"><g transform="" style="fill: rgb(65, 83, 178);">
<rect width="100" height="100"/>
</g></g><g transform="translate(768,768) scale(0.48,0.48)"><g transform="" style="fill: rgb(65, 83, 178);">
<rect width="100" height="100"/>
</g></g><g transform="translate(912,768) scale(0.48,0.48)"><g transform="" style="fill: rgb(65, 83, 178);">
<rect width="100" height="100"/>
</g></g><g transform="translate(384,816) scale(0.48,0.48)"><g transform="" style="fill: rgb(65, 83, 178);">
<rect width="100" height="100"/>
</g></g><g transform="translate(432,816) scale(0.48,0.48)"><g transform="" style="fill: rgb(65, 83, 178);">
<rect width="100" height="100"/>
</g></g><g transform="translate(528,816) scale(0.48,0.48)"><g transform="" style="fill: rgb(65, 83, 178);">
<rect width="100" height="100"/>
</g></g><g transform="translate(576,816) scale(0.48,0.48)"><g transform="" style="fill: rgb(65, 83, 178);">
<rect width="100" height="100"/>
</g></g><g transform="translate(624,816) scale(0.48,0.48)"><g transform="" style="fill: rgb(65, 83, 178);">
<rect width="100" height="100"/>
</g></g><g transform="translate(672,816) scale(0.48,0.48)"><g transform="" style="fill: rgb(65, 83, 178);">
<rect width="100" height="100"/>
</g></g><g transform="translate(720,816) scale(0.48,0.48)"><g transform="" style="fill: rgb(65, 83, 178);">
<rect width="100" height="100"/>
</g></g><g transform="translate(816,816) scale(0.48,0.48)"><g transform="" style="fill: rgb(65, 83, 178);">
<rect width="100" height="100"/>
</g></g><g transform="translate(384,864) scale(0.48,0.48)"><g transform="" style="fill: rgb(65, 83, 178);">
<rect width="100" height="100"/>
</g></g><g transform="translate(432,864) scale(0.48,0.48)"><g transform="" style="fill: rgb(65, 83, 178);">
<rect width="100" height="100"/>
</g></g><g transform="translate(576,864) scale(0.48,0.48)"><g transform="" style="fill: rgb(65, 83, 178);">
<rect width="100" height="100"/>
</g></g><g transform="translate(672,864) scale(0.48,0.48)"><g transform="" style="fill: rgb(65, 83, 178);">
<rect width="100" height="100"/>
</g></g><g transform="translate(720,864) scale(0.48,0.48)"><g transform="" style="fill: rgb(65, 83, 178);">
<rect width="100" height="100"/>
</g></g><g transform="translate(864,864) scale(0.48,0.48)"><g transform="" style="fill: rgb(65, 83, 178);">
<rect width="100" height="100"/>
</g></g><g transform="translate(432,912) scale(0.48,0.48)"><g transform="" style="fill: rgb(65, 83, 178);">
<rect width="100" height="100"/>
</g></g><g transform="translate(528,912) scale(0.48,0.48)"><g transform="" style="fill: rgb(65, 83, 178);">
<rect width="100" height="100"/>
</g></g><g transform="translate(576,912) scale(0.48,0.48)"><g transform="" style="fill: rgb(65, 83, 178);">
<rect width="100" height="100"/>
</g></g><g transform="translate(624,912) scale(0.48,0.48)"><g transform="" style="fill: rgb(65, 83, 178);">
<rect width="100" height="100"/>
</g></g><g transform="translate(672,912) scale(0.48,0.48)"><g transform="" style="fill: rgb(65, 83, 178);">
<rect width="100" height="100"/>
</g></g><g transform="translate(768,912) scale(0.48,0.48)"><g transform="" style="fill: rgb(65, 83, 178);">
<rect width="100" height="100"/>
</g></g><g transform="translate(816,912) scale(0.48,0.48)"><g transform="" style="fill: rgb(65, 83, 178);">
<rect width="100" height="100"/>
</g></g><g transform="translate(864,912) scale(0.48,0.48)"><g transform="" style="fill: rgb(65, 83, 178);">
<rect width="100" height="100"/>
</g></g><g transform="translate(384,960) scale(0.48,0.48)"><g transform="" style="fill: rgb(65, 83, 178);">
<rect width="100" height="100"/>
</g></g><g transform="translate(432,960) scale(0.48,0.48)"><g transform="" style="fill: rgb(65, 83, 178);">
<rect width="100" height="100"/>
</g></g><g transform="translate(576,960) scale(0.48,0.48)"><g transform="" style="fill: rgb(65, 83, 178);">
<rect width="100" height="100"/>
</g></g><g transform="translate(768,960) scale(0.48,0.48)"><g transform="" style="fill: rgb(65, 83, 178);">
<rect width="100" height="100"/>
</g></g><g transform="translate(912,960) scale(0.48,0.48)"><g transform="" style="fill: rgb(65, 83, 178);">
<rect width="100" height="100"/>
</g></g><g transform="translate(0,0) scale(3.36, 3.36)"><g transform="" style="fill: rgb(65, 83, 178);">
<g>
	<rect x="15" y="15" style="fill:none;" width="70" height="70"/>
	<path d="M85,0H15H0v15v70v15h15h70h15V85V15V0H85z M85,85H15V15h70V85z"/>
</g>
</g></g><g transform="translate(672,0) scale(3.36, 3.36)"><g transform="" style="fill: rgb(65, 83, 178);">
<g>
	<rect x="15" y="15" style="fill:none;" width="70" height="70"/>
	<path d="M85,0H15H0v15v70v15h15h70h15V85V15V0H85z M85,85H15V15h70V85z"/>
</g>
</g></g><g transform="translate(0,672) scale(3.36, 3.36)"><g transform="" style="fill: rgb(65, 83, 178);">
<g>
	<rect x="15" y="15" style="fill:none;" width="70" height="70"/>
	<path d="M85,0H15H0v15v70v15h15h70h15V85V15V0H85z M85,85H15V15h70V85z"/>
</g>
</g></g><g transform="translate(96,96) scale(1.44, 1.44)"><g transform="" style="fill: rgb(65, 83, 178);">
<rect width="100" height="100"/>
</g></g><g transform="translate(768,96) scale(1.44, 1.44)"><g transform="" style="fill: rgb(65, 83, 178);">
<rect width="100" height="100"/>
</g></g><g transform="translate(96,768) scale(1.44, 1.44)"><g transform="" style="fill: rgb(65, 83, 178);">
<rect width="100" height="100"/>
</g></g></g></svg>
